<?xml version="1.0" standalone="no"?>
<!DOCTYPE svg PUBLIC "-//W3C//DTD SVG 20010904//EN"
 "http://www.w3.org/TR/2001/REC-SVG-20010904/DTD/svg10.dtd">
<svg version="1.0" xmlns="http://www.w3.org/2000/svg"
 width="200.000000pt" height="225.000000pt" viewBox="0 0 200.000000 225.000000"
 preserveAspectRatio="xMidYMid meet">

<g transform="translate(0.000000,225.000000) scale(0.100000,-0.100000)"
fill="#000000" stroke="none">
<path d="M1035 2096 c-147 -28 -265 -95 -375 -213 -128 -137 -186 -297 -177
-488 13 -301 222 -555 517 -630 84 -22 236 -22 321 0 225 57 407 226 486 450
25 72 28 94 28 210 0 116 -3 138 -28 210 -37 107 -75 171 -149 250 -69 74
-123 115 -209 156 -120 59 -284 80 -414 55z m211 -37 c265 -37 474 -226 540
-488 24 -96 16 -254 -18 -349 -67 -187 -215 -333 -405 -399 -106 -37 -271 -40
-380 -5 -196 61 -342 199 -420 398 -25 63 -27 81 -27 209 -1 133 1 144 31 221
95 250 305 402 585 423 9 0 51 -4 94 -10z"/>
<path d="M574 865 c-22 -30 -24 -37 -13 -51 22 -27 191 -154 205 -154 17 0 57
57 49 71 -7 11 -203 169 -210 169 -2 0 -16 -16 -31 -35z"/>
<path d="M491 753 c-31 -27 -361 -444 -372 -470 -4 -13 -5 -31 -1 -42 7 -18
116 -112 155 -133 28 -15 72 8 109 56 18 22 94 118 169 212 169 212 173 217
165 249 -8 31 -150 145 -181 145 -13 0 -32 -8 -44 -17z"/>
</g>
</svg>
